# xmcd
# 
# Track frame offsets:
#   150
#   14281
#   29429
#   48511
#   64547
#   80850
#   96444
#   111784
#   127222
#   145957
#   164070
#   180436
#   198507
#   214440
#   228279
# 
# Disc length: 3356 seconds
# 
# Revision: 4
# Processed by: cddbd v1.5.2PL0 Copyright (c) Steve Scherf et al.
# Submitted via: Synapstar 1.0 
# 
DISCID=e10d1a0f
DTITLE=Various Artist - MM 6416 COUNTRY HITS VOL 38
DYEAR=1900
DGENRE=Country
TTITLE0=Buffett, Jimmy and Friends - Hey Good Lookin'
TTITLE1=Wilson, Gretchen - Here For The Party
TTITLE2=Chesney, Kenny - I Go Back
TTITLE3=Cotter, Brad - I Meant To
TTITLE4=Clark, Terri - Girls Lie Too
TTITLE5=Big and Rich - Save A Horse (Ride A Cowboy)
TTITLE6=Jewel, Buddy - One Step At A Time
TTITLE7=Adkins, Trace - Rough And Ready
TTITLE8=Kellie Coffey, Kellie - Dance With My Father
TTITLE9=Bently, Dierks - How Am I Doin'
TTITLE10=Jenkins, The - Blame It On Mama
TTITLE11=Evans, Sara - Suds In The Bucket
TTITLE12=Vassar, Phil - In Real Love
TTITLE13=Tritt, Travis - Girls Gone Wild, The
TTITLE14=McGraw, Tex - Live Like You Were Dying
EXTD=MediaType: Karaoke CD+G Producer: Music Maestro
EXTT0=
EXTT1=
EXTT2=
EXTT3=
EXTT4=
EXTT5=
EXTT6=
EXTT7=
EXTT8=
EXTT9=
EXTT10=
EXTT11=
EXTT12=
EXTT13=
EXTT14=
PLAYORDER=
